<svg width="1032" height="661" viewBox="0 0 1032 661" fill="none" xmlns="http://www.w3.org/2000/svg">
<path fill-rule="evenodd" clip-rule="evenodd" d="M410.49 621.449C461.924 672.875 545.306 672.875 596.74 621.449L993.399 224.846C1044.84 173.409 1044.84 90.0065 993.399 38.5698C941.965 -12.8566 858.582 -12.8566 807.149 38.5698L628.976 216.717C672.801 164.968 670.306 87.3776 621.491 38.5698C570.058 -12.8566 486.675 -12.8566 435.241 38.5698L38.5828 435.173C-12.861 486.609 -12.861 570.012 38.5829 621.449C90.0165 672.875 173.399 672.875 224.833 621.449L403.005 443.301C359.181 495.051 361.675 572.641 410.49 621.449Z" fill="#63BABA"/>
</svg>
