<svg
  xmlns="http://www.w3.org/2000/svg"
  width="1105"
  height="732"
  fill="none"
><path
    fill="#63BABA"
    fill-rule="evenodd"
    d="M38.583 693.273c51.434 51.426 134.816 51.426 186.25 0L621.491 296.67c51.444-51.436 51.444-134.839 0-186.276-51.433-51.426-134.816-51.426-186.249 0L38.582 506.997c-51.443 51.436-51.443 134.839 0 186.276Zm444.692-71.824c51.434 51.426 134.816 51.426 186.25 0l396.655-396.603c51.45-51.437 51.45-134.84 0-186.276-51.43-51.427-134.813-51.427-186.246 0L483.275 435.173c-51.444 51.436-51.444 134.839 0 186.276Z"
    clip-rule="evenodd"
  /></svg>
