<svg width="1366" height="156" viewBox="0 0 1366 156" fill="none" xmlns="http://www.w3.org/2000/svg">
<g id="Group 25">
<path id="Combined Shape" fill-rule="evenodd" clip-rule="evenodd" d="M842.498 563.441C893.931 614.868 977.314 614.868 1028.75 563.441L1425.41 166.838C1476.85 115.402 1476.85 31.999 1425.41 -19.4377C1373.97 -70.8641 1290.59 -70.8641 1239.16 -19.4377L1060.98 158.71C1104.81 106.96 1102.31 29.3701 1053.5 -19.4377C1002.07 -70.8641 918.683 -70.8641 867.249 -19.4377L470.59 377.165C419.147 428.602 419.147 512.005 470.59 563.441C522.024 614.868 605.407 614.868 656.84 563.441L835.013 385.294C791.188 437.043 793.683 514.633 842.498 563.441Z" fill="#63BABA"/>
<path id="Combined Shape Copy" fill-rule="evenodd" clip-rule="evenodd" d="M-102.849 117.869C-51.4153 169.296 31.9675 169.296 83.4011 117.869L480.06 -278.734C531.504 -330.17 531.503 -413.573 480.06 -465.01C428.626 -516.436 345.243 -516.436 293.81 -465.01L-102.849 -68.4069C-154.293 -16.9703 -154.293 66.4326 -102.849 117.869ZM341.843 46.045C393.277 97.4713 476.659 97.4713 528.093 46.045L924.752 -350.558C976.195 -401.994 976.195 -485.397 924.752 -536.834C873.318 -588.26 789.935 -588.26 738.502 -536.834L341.843 -140.231C290.399 -88.7945 290.399 -5.39163 341.843 46.045Z" fill="#63BABA"/>
</g>
</svg>
